<svg xmlns="http://www.w3.org/2000/svg" viewBox="0 0 820 560">
<defs><linearGradient id="water" x1="0" y1="0" x2="0" y2="1"><stop stop-color="#a9d0c2"/><stop offset="1" stop-color="#4d8b78"/></linearGradient><linearGradient id="sand" x1="0" y1="0" x2="1" y2="1"><stop stop-color="#f5d695"/><stop offset="1" stop-color="#d89a52"/></linearGradient><filter id="sh"><feDropShadow dx="0" dy="11" stdDeviation="13" flood-color="#173a20" flood-opacity=".12"/></filter></defs>
<circle cx="639" cy="113" r="67" fill="#fff0c8"/>
<path d="M80 373c88-93 159-122 247-88 63 24 112 77 183 56 81-24 129-105 229-42v164H71Z" fill="#b6d2a9"/>
<path d="M72 416c117-91 230-82 317-40 85 40 160 35 244-5 39-19 80-25 122-3v111H71Z" fill="#315f3c"/>
<path d="M76 415h669v103H76Z" fill="url(#water)"/>
<g transform="translate(295 233)" filter="url(#sh)">
<rect x="0" y="80" width="260" height="88" rx="6" fill="#efd19a"/>
<rect x="42" y="28" width="176" height="62" rx="5" fill="#f5ddb0"/>
<path d="M42 28 130 0l88 28Z" fill="#dba55e"/>
<g fill="#8a633d"><path d="M24 111h22v39H24Zm51 0h22v39H75Zm51 0h22v39h-22Zm51 0h22v39h-22Zm51 0h22v39h-22Z"/></g>
<g fill="#d49b52"><circle cx="42" cy="28" r="16"/><circle cx="218" cy="28" r="16"/></g>
</g>
<path d="M65 340c72-62 124-87 174-74-49 17-92 53-122 103Z" fill="url(#sand)"/>
<g fill="#674726"><path d="M111 308c16 0 27 9 27 18H87c0-9 9-18 24-18Zm-19 16h8v22h-8Zm37 0h8v22h-8Zm52-30c16 0 27 9 27 18h-51c0-9 9-18 24-18Zm-18 16h8v22h-8Zm36 0h8v22h-8Z"/></g>
<g transform="translate(542 390)" filter="url(#sh)">
<path d="M0 30h118v48H0Z" fill="#f4ead6"/><path d="M15 30c10-21 25-30 44-30s36 9 44 30Z" fill="#fff7e8"/><path d="M0 78c28 15 88 15 118 0-8 24-31 35-59 35S8 102 0 78Z" fill="#244f31"/>
</g>
<g transform="translate(84 398)" filter="url(#sh)">
<rect x="0" y="20" width="143" height="105" rx="18" fill="#efe3cb"/>
<path d="M24 20V7c0-9 8-17 17-17h60c10 0 18 8 18 17v13" fill="none" stroke="#a16e39" stroke-width="9"/>
<rect x="61" y="20" width="22" height="105" fill="#2b653b"/>
<circle cx="72" cy="74" r="8" fill="#d8ad53"/>
<circle cx="190" cy="84" r="44" fill="#e9e1cf"/><circle cx="190" cy="84" r="31" fill="#2f6840"/><circle cx="190" cy="84" r="18" fill="#d2bd94"/>
</g>
<g fill="#244f31"><path d="M43 458c48-37 87-44 119-29-42 5-77 18-108 43Z"/><path d="M671 461c39-30 72-36 101-24-34 5-65 17-91 37Z"/></g>
</svg>